<svg xmlns="http://www.w3.org/2000/svg" viewBox="0 0 195.29 87.63"><title>eatery-logo</title><g id="Layer_2" data-name="Layer 2"><g id="Layer_1-2" data-name="Layer 1"><path d="M10.32,45.13v7a5,5,0,0,0,1.37,3.75,5.12,5.12,0,0,0,3.69,1.31c2,0,3.25-.57,3.9-1.72A9.29,9.29,0,0,0,20.44,52H30.76a17.1,17.1,0,0,1-1.06,6.07,13.48,13.48,0,0,1-3.09,4.86,14.54,14.54,0,0,1-4.85,3.34,16.06,16.06,0,0,1-6.38,1.21,15.9,15.9,0,0,1-8.2-2,14,14,0,0,1-5.26-5.36A14,14,0,0,1,.4,55.45,38,38,0,0,1,0,49.68V32.79A38,38,0,0,1,.4,27a14,14,0,0,1,1.52-4.66A14,14,0,0,1,7.18,17a15.9,15.9,0,0,1,8.2-2,16.45,16.45,0,0,1,6.43,1.21,13.51,13.51,0,0,1,4.85,3.39,15.16,15.16,0,0,1,3,5.11A18.27,18.27,0,0,1,30.76,31V45.13Zm0-8.09H20.44V31.17a6.28,6.28,0,0,0-1.37-4.41,4.82,4.82,0,0,0-3.69-1.46,4.82,4.82,0,0,0-3.69,1.46,6.28,6.28,0,0,0-1.37,4.41Z"/><path d="M57.88,61.62h-.2A19.33,19.33,0,0,1,53.58,66a9.71,9.71,0,0,1-5.82,1.51A13.44,13.44,0,0,1,44,66.94a9.37,9.37,0,0,1-3.6-2,10.58,10.58,0,0,1-2.73-4.15,19,19,0,0,1-1.06-6.93,36.79,36.79,0,0,1,.71-7.64,12.07,12.07,0,0,1,2.58-5.46,11.2,11.2,0,0,1,5-3.24,25.25,25.25,0,0,1,8-1.06c.74,0,1.48,0,2.23.1s1.65.14,2.73.2V31.37A7.89,7.89,0,0,0,56.77,27c-.75-1.15-2.1-1.72-4.05-1.72A5.85,5.85,0,0,0,49,26.61a6.24,6.24,0,0,0-2.18,3.85h-10q.51-7,4.66-11.13a14.67,14.67,0,0,1,4.85-3.19A16.6,16.6,0,0,1,52.72,15a17.78,17.78,0,0,1,6.07,1,13.35,13.35,0,0,1,4.91,3A14.55,14.55,0,0,1,67,24.08a19,19,0,0,1,1.21,7.09V66.89H57.88Zm0-16.79a16.28,16.28,0,0,0-2.83-.31,10.18,10.18,0,0,0-5.72,1.57C47.74,47.14,47,49,47,51.81a7.46,7.46,0,0,0,1.42,4.75,4.7,4.7,0,0,0,3.94,1.83,5.11,5.11,0,0,0,4.1-1.72,7.27,7.27,0,0,0,1.47-4.86Z"/><path d="M75.79,0H86.11V15.58h6.38v8.1H86.11V52.11A9.17,9.17,0,0,0,86.46,55a2.88,2.88,0,0,0,1.12,1.51,4.1,4.1,0,0,0,2,.61c.81.07,1.79.1,2.94.1v9.72H88.24a13.77,13.77,0,0,1-5.92-1.12,10.55,10.55,0,0,1-3.8-2.83A11,11,0,0,1,76.45,59a14.44,14.44,0,0,1-.66-4.2V23.68H70.63v-8.1h5.16Z"/><path d="M105.84,45.13v7a5,5,0,0,0,1.37,3.75,5.12,5.12,0,0,0,3.69,1.31c2,0,3.25-.57,3.9-1.72A9.29,9.29,0,0,0,116,52h10.32a17.1,17.1,0,0,1-1.06,6.07,13.48,13.48,0,0,1-3.09,4.86,14.54,14.54,0,0,1-4.85,3.34,16.06,16.06,0,0,1-6.38,1.21,15.84,15.84,0,0,1-8.19-2,13.53,13.53,0,0,1-6.78-10,36.67,36.67,0,0,1-.41-5.77V32.79A36.67,36.67,0,0,1,95.93,27a13.53,13.53,0,0,1,6.78-10,15.84,15.84,0,0,1,8.19-2,16.45,16.45,0,0,1,6.43,1.21,13.51,13.51,0,0,1,4.85,3.39,15.16,15.16,0,0,1,3,5.11A18.27,18.27,0,0,1,126.28,31V45.13Zm0-8.09H116V31.17a6.23,6.23,0,0,0-1.37-4.41,5.39,5.39,0,0,0-7.38,0,6.28,6.28,0,0,0-1.37,4.41Z"/><path d="M133.87,15.58h10.32v5.47a30.94,30.94,0,0,1,6.17-4.45A15.77,15.77,0,0,1,157.85,15V25.9a8.47,8.47,0,0,0-3.14-.6,12.31,12.31,0,0,0-3.49.55,9.68,9.68,0,0,0-3.44,1.88,10.07,10.07,0,0,0-2.58,3.44,12.24,12.24,0,0,0-1,5.26V66.89H133.87Z"/><path d="M170.4,15.58l7.08,32h.2l7-32h10.62L180.52,75.79a18.26,18.26,0,0,1-2.28,5.72,13.08,13.08,0,0,1-3.39,3.64,12.28,12.28,0,0,1-4.1,1.92,18.13,18.13,0,0,1-4.5.56h-2.83V77.92h2.32a7.75,7.75,0,0,0,2.64-.41,4.09,4.09,0,0,0,2-1.77,15.43,15.43,0,0,0,1.57-4c.47-1.79,1-4.16,1.62-7.13l-14.07-49Z"/></g></g></svg>